<mxfile host="app.diagrams.net" agent="Mozilla/5.0 (Windows NT 10.0; Win64; x64) AppleWebKit/537.36 (KHTML, like Gecko) Chrome/134.0.0.0 YaBrowser/25.4.0.0 Safari/537.36" version="27.1.1">
  <diagram name="Страница — 1" id="9QxMUoZ27kOZjg-i_mxq">
    <mxGraphModel dx="1042" dy="619" grid="1" gridSize="10" guides="1" tooltips="1" connect="1" arrows="1" fold="1" page="1" pageScale="1" pageWidth="827" pageHeight="1169" math="0" shadow="0">
      <root>
        <mxCell id="0" />
        <mxCell id="1" parent="0" />
        <mxCell id="aFQ3x71uN8QIRutekzOe-1" value="&lt;h1 style=&quot;margin-top: 0px;&quot;&gt;Учет заказов&amp;nbsp; и товаров&amp;nbsp;&lt;/h1&gt;&lt;p&gt;Веб-решение для учета заказов с офиса и учета товара склада&lt;br&gt;&lt;br&gt;&lt;/p&gt;&lt;p&gt;в 1 релизе представляет собой 2 вкладки&lt;/p&gt;&lt;p&gt;&lt;/p&gt;&lt;ol&gt;&lt;li&gt;Заказы&lt;/li&gt;&lt;li&gt;Склад&lt;/li&gt;&lt;/ol&gt;&lt;br&gt;&lt;p&gt;&lt;/p&gt;" style="text;html=1;whiteSpace=wrap;overflow=hidden;rounded=0;" vertex="1" parent="1">
          <mxGeometry width="320" height="170" as="geometry" />
        </mxCell>
        <mxCell id="aFQ3x71uN8QIRutekzOe-2" value="&lt;h1 style=&quot;margin-top: 0px;&quot;&gt;Заказы&lt;/h1&gt;&lt;p&gt;&lt;/p&gt;&lt;ol&gt;&lt;li&gt;Отображение всех активных заказов (состояние заказа)&lt;/li&gt;&lt;li&gt;Кнопка перехода на форма оформления заказа&lt;/li&gt;&lt;li&gt;Отображение информации о заказе&lt;/li&gt;&lt;/ol&gt;&lt;p&gt;&lt;/p&gt;" style="text;html=1;whiteSpace=wrap;overflow=hidden;rounded=0;" vertex="1" parent="1">
          <mxGeometry x="10" y="190" width="810" height="420" as="geometry" />
        </mxCell>
      </root>
    </mxGraphModel>
  </diagram>
</mxfile>
